<svg width="28" height="28" viewBox="0 0 28 28" fill="none" xmlns="http://www.w3.org/2000/svg">
<g filter="url(#filter0_d_9_5)">
<path fill-rule="evenodd" clip-rule="evenodd" d="M4 4C4 2.93913 4.42143 1.92172 5.17157 1.17157C5.92172 0.421427 6.93913 0 8 0H20C21.0609 0 22.0783 0.421427 22.8284 1.17157C23.5786 1.92172 24 2.93913 24 4V16C24 17.0609 23.5786 18.0783 22.8284 18.8284C22.0783 19.5786 21.0609 20 20 20H8C6.93913 20 5.92172 19.5786 5.17157 18.8284C4.42143 18.0783 4 17.0609 4 16V4ZM8 2C7.46957 2 6.96086 2.21071 6.58579 2.58579C6.21071 2.96086 6 3.46957 6 4V16C6 16.5304 6.21071 17.0391 6.58579 17.4142C6.96086 17.7893 7.46957 18 8 18H14V11H13C12.7348 11 12.4804 10.8946 12.2929 10.7071C12.1054 10.5196 12 10.2652 12 10C12 9.73478 12.1054 9.48043 12.2929 9.29289C12.4804 9.10536 12.7348 9 13 9H14V7.5C14 6.57174 14.3687 5.6815 15.0251 5.02513C15.6815 4.36875 16.5717 4 17.5 4H18.1C18.3652 4 18.6196 4.10536 18.8071 4.29289C18.9946 4.48043 19.1 4.73478 19.1 5C19.1 5.26522 18.9946 5.51957 18.8071 5.70711C18.6196 5.89464 18.3652 6 18.1 6H17.5C17.303 6 17.108 6.0388 16.926 6.11418C16.744 6.18956 16.5786 6.30005 16.4393 6.43934C16.3001 6.57863 16.1896 6.74399 16.1142 6.92597C16.0388 7.10796 16 7.30302 16 7.5V9H18.1C18.3652 9 18.6196 9.10536 18.8071 9.29289C18.9946 9.48043 19.1 9.73478 19.1 10C19.1 10.2652 18.9946 10.5196 18.8071 10.7071C18.6196 10.8946 18.3652 11 18.1 11H16V18H20C20.5304 18 21.0391 17.7893 21.4142 17.4142C21.7893 17.0391 22 16.5304 22 16V4C22 3.46957 21.7893 2.96086 21.4142 2.58579C21.0391 2.21071 20.5304 2 20 2H8Z" fill="black"/>
<path d="M14 18.5H14.5V18V11V10.5H14H13C12.8674 10.5 12.7402 10.4473 12.6464 10.3536C12.5527 10.2598 12.5 10.1326 12.5 10C12.5 9.86739 12.5527 9.74022 12.6464 9.64645C12.7402 9.55268 12.8674 9.5 13 9.5H14H14.5V9V7.5C14.5 6.70435 14.8161 5.94129 15.3787 5.37868C15.9413 4.81607 16.7044 4.5 17.5 4.5H18.1C18.2326 4.5 18.3598 4.55268 18.4536 4.64645C18.5473 4.74022 18.6 4.86739 18.6 5C18.6 5.13261 18.5473 5.25978 18.4536 5.35355C18.3598 5.44732 18.2326 5.5 18.1 5.5H17.5C17.2374 5.5 16.9773 5.55173 16.7346 5.65224C16.492 5.75275 16.2715 5.90007 16.0858 6.08579C15.9001 6.2715 15.7528 6.49198 15.6522 6.73463C15.5517 6.97728 15.5 7.23736 15.5 7.5V9V9.5H16H18.1C18.2326 9.5 18.3598 9.55268 18.4536 9.64645C18.5473 9.74022 18.6 9.86739 18.6 10C18.6 10.1326 18.5473 10.2598 18.4536 10.3536C18.3598 10.4473 18.2326 10.5 18.1 10.5H16H15.5V11V18V18.5H16H20C20.663 18.5 21.2989 18.2366 21.7678 17.7678C22.2366 17.2989 22.5 16.663 22.5 16V4C22.5 3.33696 22.2366 2.70107 21.7678 2.23223C21.2989 1.76339 20.663 1.5 20 1.5H8C7.33696 1.5 6.70107 1.76339 6.23223 2.23223C5.76339 2.70107 5.5 3.33696 5.5 4V16C5.5 16.663 5.76339 17.2989 6.23223 17.7678C6.70107 18.2366 7.33696 18.5 8 18.5H14ZM4.5 4C4.5 3.07174 4.86875 2.1815 5.52513 1.52513C6.1815 0.868749 7.07174 0.5 8 0.5H20C20.9283 0.5 21.8185 0.868749 22.4749 1.52513C23.1313 2.1815 23.5 3.07174 23.5 4V16C23.5 16.9283 23.1313 17.8185 22.4749 18.4749C21.8185 19.1313 20.9283 19.5 20 19.5H8C7.07174 19.5 6.1815 19.1313 5.52513 18.4749C4.86875 17.8185 4.5 16.9283 4.5 16V4Z" stroke="black"/>
</g>
<defs>
<filter id="filter0_d_9_5" x="0" y="0" width="28" height="28" filterUnits="userSpaceOnUse" color-interpolation-filters="sRGB">
<feFlood flood-opacity="0" result="BackgroundImageFix"/>
<feColorMatrix in="SourceAlpha" type="matrix" values="0 0 0 0 0 0 0 0 0 0 0 0 0 0 0 0 0 0 127 0" result="hardAlpha"/>
<feOffset dy="4"/>
<feGaussianBlur stdDeviation="2"/>
<feComposite in2="hardAlpha" operator="out"/>
<feColorMatrix type="matrix" values="0 0 0 0 0 0 0 0 0 0 0 0 0 0 0 0 0 0 0.25 0"/>
<feBlend mode="normal" in2="BackgroundImageFix" result="effect1_dropShadow_9_5"/>
<feBlend mode="normal" in="SourceGraphic" in2="effect1_dropShadow_9_5" result="shape"/>
</filter>
</defs>
</svg>
